<svg xmlns="http://www.w3.org/2000/svg" xmlns:xlink="http://www.w3.org/1999/xlink" width="500" zoomAndPan="magnify" viewBox="0 0 375 149.999998" height="200" preserveAspectRatio="xMidYMid meet" version="1.0"><defs><filter x="0%" y="0%" width="100%" height="100%" id="7423f1bde9"><feColorMatrix values="0 0 0 0 1 0 0 0 0 1 0 0 0 0 1 0 0 0 1 0" color-interpolation-filters="sRGB"/></filter><g/><mask id="5c0e903d72"><g filter="url(#7423f1bde9)"><rect x="-37.5" width="450" fill="#000000" y="-15" height="179.999997" fill-opacity="0.2392"/></g></mask><clipPath id="20d51a879a"><path d="M 0.988281 0.472656 L 104.855469 0.472656 L 104.855469 104.339844 L 0.988281 104.339844 Z M 0.988281 0.472656 " clip-rule="nonzero"/></clipPath><clipPath id="4652e172b4"><path d="M 18.238281 0.472656 L 87.605469 0.472656 C 97.128906 0.472656 104.855469 8.195312 104.855469 17.722656 L 104.855469 87.089844 C 104.855469 96.617188 97.128906 104.339844 87.605469 104.339844 L 18.238281 104.339844 C 8.710938 104.339844 0.988281 96.617188 0.988281 87.089844 L 0.988281 17.722656 C 0.988281 8.195312 8.710938 0.472656 18.238281 0.472656 " clip-rule="nonzero"/></clipPath><clipPath id="88a2681aff"><rect x="0" width="105" y="0" height="105"/></clipPath><mask id="25f9647243"><g filter="url(#7423f1bde9)"><rect x="-37.5" width="450" fill="#000000" y="-15" height="179.999997" fill-opacity="0.2392"/></g></mask><clipPath id="007df9095b"><path d="M 0.839844 0.132812 L 104.707031 0.132812 L 104.707031 104 L 0.839844 104 Z M 0.839844 0.132812 " clip-rule="nonzero"/></clipPath><clipPath id="f7d0276b42"><path d="M 52.773438 0.132812 L 104.707031 52.066406 L 52.773438 104 L 0.839844 52.066406 L 52.773438 0.132812 " clip-rule="nonzero"/></clipPath><clipPath id="91e79a939c"><rect x="0" width="105" y="0" height="104"/></clipPath><clipPath id="865979a52a"><path d="M 38.085938 0 L 142.769531 0 L 142.769531 104.679688 L 38.085938 104.679688 Z M 38.085938 0 " clip-rule="nonzero"/></clipPath><clipPath id="2fa2a71e2f"><path d="M 55.335938 0 L 125.519531 0 C 130.09375 0 134.480469 1.816406 137.714844 5.050781 C 140.949219 8.289062 142.769531 12.675781 142.769531 17.25 L 142.769531 87.429688 C 142.769531 92.007812 140.949219 96.394531 137.714844 99.628906 C 134.480469 102.863281 130.09375 104.679688 125.519531 104.679688 L 55.335938 104.679688 C 50.761719 104.679688 46.375 102.863281 43.140625 99.628906 C 39.902344 96.394531 38.085938 92.007812 38.085938 87.429688 L 38.085938 17.25 C 38.085938 12.675781 39.902344 8.289062 43.140625 5.050781 C 46.375 1.816406 50.761719 0 55.335938 0 " clip-rule="nonzero"/></clipPath><clipPath id="bbbcb3a023"><path d="M 70.1875 42.996094 L 174.871094 42.996094 L 174.871094 147.675781 L 70.1875 147.675781 Z M 70.1875 42.996094 " clip-rule="nonzero"/></clipPath><clipPath id="4aec78154b"><path d="M 122.53125 42.996094 L 174.871094 95.335938 L 122.53125 147.675781 L 70.1875 95.335938 L 122.53125 42.996094 " clip-rule="nonzero"/></clipPath></defs><g mask="url(#5c0e903d72)"><g transform="matrix(1, 0, 0, 1, 34, 3)"><g clip-path="url(#88a2681aff)"><g clip-path="url(#20d51a879a)"><g clip-path="url(#4652e172b4)"><path fill="#545454" d="M 0.988281 0.472656 L 104.855469 0.472656 L 104.855469 104.339844 L 0.988281 104.339844 Z M 0.988281 0.472656 " fill-opacity="1" fill-rule="nonzero"/></g></g></g></g></g><g mask="url(#25f9647243)"><g transform="matrix(1, 0, 0, 1, 66, 46)"><g clip-path="url(#91e79a939c)"><g clip-path="url(#007df9095b)"><g clip-path="url(#f7d0276b42)"><path fill="#545454" d="M 0.839844 0.132812 L 104.707031 0.132812 L 104.707031 104 L 0.839844 104 Z M 0.839844 0.132812 " fill-opacity="1" fill-rule="nonzero"/></g></g></g></g></g><g clip-path="url(#865979a52a)"><g clip-path="url(#2fa2a71e2f)"><path fill="#38b6ff" d="M 38.085938 0 L 142.769531 0 L 142.769531 104.679688 L 38.085938 104.679688 Z M 38.085938 0 " fill-opacity="1" fill-rule="nonzero"/></g></g><g clip-path="url(#bbbcb3a023)"><g clip-path="url(#4aec78154b)"><path fill="#008dec" d="M 70.1875 42.996094 L 174.871094 42.996094 L 174.871094 147.675781 L 70.1875 147.675781 Z M 70.1875 42.996094 " fill-opacity="1" fill-rule="nonzero"/></g></g><g fill="#000000" fill-opacity="1"><g transform="translate(149.744274, 60.477026)"><g><path d="M 16.417969 0.414062 C 23.195312 0.414062 27.683594 -3.285156 28.722656 -8.976562 L 25.6875 -8.976562 C 24.816406 -4.613281 21.28125 -2.160156 16.335938 -2.160156 C 8.730469 -2.160156 4.945312 -8.105469 4.945312 -15.878906 C 4.945312 -23.609375 8.730469 -29.554688 16.335938 -29.554688 C 21.28125 -29.554688 24.855469 -27.101562 25.6875 -23.316406 L 28.722656 -23.316406 C 27.722656 -28.472656 23.195312 -32.128906 16.417969 -32.128906 C 6.609375 -32.128906 2.078125 -24.480469 2.078125 -15.878906 C 2.078125 -7.273438 6.609375 0.414062 16.417969 0.414062 Z M 16.417969 0.414062 "/></g></g></g><g fill="#000000" fill-opacity="1"><g transform="translate(178.376155, 60.477026)"><g><path d="M 12.675781 -23.234375 C 9.476562 -23.234375 7.148438 -21.945312 5.652344 -19.410156 L 5.652344 -22.820312 L 2.949219 -22.820312 L 2.949219 0 L 5.652344 0 L 5.652344 -11.140625 C 5.652344 -14.546875 6.191406 -16.917969 7.523438 -18.578125 C 8.605469 -19.953125 10.226562 -20.574219 12.386719 -20.574219 L 13.425781 -20.574219 L 13.425781 -23.234375 Z M 12.675781 -23.234375 "/></g></g></g><g fill="#000000" fill-opacity="1"><g transform="translate(190.884133, 60.477026)"><g><path d="M 12.925781 0.414062 C 19.371094 0.414062 23.941406 -4.695312 23.941406 -11.511719 C 23.941406 -18.207031 19.285156 -23.234375 12.925781 -23.234375 C 6.566406 -23.234375 1.996094 -18.207031 1.996094 -11.511719 C 1.996094 -4.613281 6.566406 0.414062 12.925781 0.414062 Z M 12.925781 -1.996094 C 8.230469 -1.996094 4.695312 -5.984375 4.695312 -11.511719 C 4.695312 -16.835938 8.1875 -20.824219 12.925781 -20.824219 C 17.707031 -20.824219 21.238281 -16.792969 21.238281 -11.511719 C 21.238281 -6.070312 17.664062 -1.996094 12.925781 -1.996094 Z M 12.925781 -1.996094 "/></g></g></g><g fill="#000000" fill-opacity="1"><g transform="translate(215.02791, 60.477026)"><g><path d="M 5.652344 0 L 5.652344 -9.019531 C 5.652344 -14.257812 6.566406 -17.167969 8.1875 -18.953125 C 9.3125 -20.160156 10.808594 -20.824219 12.554688 -20.824219 C 14.421875 -20.824219 15.835938 -20.117188 16.710938 -18.703125 C 17.375 -17.625 17.707031 -16.085938 17.707031 -14.132812 L 17.707031 0 L 20.410156 0 L 20.410156 -14.007812 C 20.410156 -15.546875 20.410156 -17.789062 19.285156 -19.742188 C 18.082031 -21.863281 15.960938 -23.234375 13.132812 -23.234375 C 9.933594 -23.234375 7.523438 -21.945312 5.652344 -18.996094 L 5.652344 -22.820312 L 2.949219 -22.820312 L 2.949219 0 Z M 5.652344 0 "/></g></g></g><g fill="#000000" fill-opacity="1"><g transform="translate(236.387416, 60.477026)"><g><path d="M 12.925781 0.414062 C 19.371094 0.414062 23.941406 -4.695312 23.941406 -11.511719 C 23.941406 -18.207031 19.285156 -23.234375 12.925781 -23.234375 C 6.566406 -23.234375 1.996094 -18.207031 1.996094 -11.511719 C 1.996094 -4.613281 6.566406 0.414062 12.925781 0.414062 Z M 12.925781 -1.996094 C 8.230469 -1.996094 4.695312 -5.984375 4.695312 -11.511719 C 4.695312 -16.835938 8.1875 -20.824219 12.925781 -20.824219 C 17.707031 -20.824219 21.238281 -16.792969 21.238281 -11.511719 C 21.238281 -6.070312 17.664062 -1.996094 12.925781 -1.996094 Z M 12.925781 -1.996094 "/></g></g></g><g fill="#000000" fill-opacity="1"><g transform="translate(260.531199, 60.477026)"><g><path d="M 6.152344 0 L 6.152344 -13.800781 L 14.257812 -13.800781 C 20.449219 -13.800781 24.316406 -17.082031 24.316406 -22.777344 C 24.316406 -28.679688 20.367188 -31.714844 14.257812 -31.714844 L 3.285156 -31.714844 L 3.285156 0 Z M 6.152344 -29.136719 L 13.882812 -29.136719 C 18.703125 -29.136719 21.488281 -26.769531 21.488281 -22.695312 C 21.488281 -18.578125 18.789062 -16.292969 13.882812 -16.292969 L 6.152344 -16.292969 Z M 6.152344 -29.136719 "/></g></g></g><g fill="#000000" fill-opacity="1"><g transform="translate(284.467203, 60.477026)"><g><path d="M 12.675781 -23.234375 C 9.476562 -23.234375 7.148438 -21.945312 5.652344 -19.410156 L 5.652344 -22.820312 L 2.949219 -22.820312 L 2.949219 0 L 5.652344 0 L 5.652344 -11.140625 C 5.652344 -14.546875 6.191406 -16.917969 7.523438 -18.578125 C 8.605469 -19.953125 10.226562 -20.574219 12.386719 -20.574219 L 13.425781 -20.574219 L 13.425781 -23.234375 Z M 12.675781 -23.234375 "/></g></g></g><g fill="#000000" fill-opacity="1"><g transform="translate(296.975182, 60.477026)"><g><path d="M 12.925781 0.414062 C 19.371094 0.414062 23.941406 -4.695312 23.941406 -11.511719 C 23.941406 -18.207031 19.285156 -23.234375 12.925781 -23.234375 C 6.566406 -23.234375 1.996094 -18.207031 1.996094 -11.511719 C 1.996094 -4.613281 6.566406 0.414062 12.925781 0.414062 Z M 12.925781 -1.996094 C 8.230469 -1.996094 4.695312 -5.984375 4.695312 -11.511719 C 4.695312 -16.835938 8.1875 -20.824219 12.925781 -20.824219 C 17.707031 -20.824219 21.238281 -16.792969 21.238281 -11.511719 C 21.238281 -6.070312 17.664062 -1.996094 12.925781 -1.996094 Z M 12.925781 -1.996094 "/></g></g></g><g fill="#000000" fill-opacity="1"><g transform="translate(321.118966, 60.477026)"><g><path d="M 7.605469 0 L 7.605469 -20.410156 L 13.382812 -20.410156 L 13.382812 -22.820312 L 7.605469 -22.820312 L 7.605469 -25.6875 C 7.605469 -28.679688 9.101562 -29.304688 11.222656 -29.304688 L 13.382812 -29.304688 L 13.382812 -31.714844 L 10.640625 -31.714844 C 6.816406 -31.714844 4.90625 -29.554688 4.90625 -25.398438 L 4.90625 -22.820312 L 1.082031 -22.820312 L 1.082031 -20.410156 L 4.90625 -20.410156 L 4.90625 0 Z M 7.605469 0 "/></g></g></g><g fill="#000000" fill-opacity="1"><g transform="translate(196.431641, 82.499997)"><g><path d="M 6.125 0.203125 C 4.582031 0.203125 3.375 -0.28125 2.5 -1.25 C 1.625 -2.226562 1.1875 -3.59375 1.1875 -5.34375 C 1.1875 -7.132812 1.640625 -8.523438 2.546875 -9.515625 C 3.453125 -10.515625 4.695312 -11.015625 6.28125 -11.015625 C 7.21875 -11.015625 8.113281 -10.851562 8.96875 -10.53125 L 8.6875 -9.65625 C 7.757812 -9.96875 6.945312 -10.125 6.25 -10.125 C 4.925781 -10.125 3.921875 -9.710938 3.234375 -8.890625 C 2.554688 -8.078125 2.21875 -6.898438 2.21875 -5.359375 C 2.21875 -3.898438 2.554688 -2.757812 3.234375 -1.9375 C 3.921875 -1.113281 4.878906 -0.703125 6.109375 -0.703125 C 7.085938 -0.703125 8 -0.875 8.84375 -1.21875 L 8.84375 -0.3125 C 8.15625 0.03125 7.25 0.203125 6.125 0.203125 Z M 6.125 0.203125 "/></g></g></g><g fill="#000000" fill-opacity="1"><g transform="translate(206.108044, 82.499997)"><g><path d="M 10.75 -5.421875 C 10.75 -3.660156 10.320312 -2.28125 9.46875 -1.28125 C 8.613281 -0.289062 7.429688 0.203125 5.921875 0.203125 C 4.972656 0.203125 4.140625 -0.0234375 3.421875 -0.484375 C 2.703125 -0.941406 2.148438 -1.597656 1.765625 -2.453125 C 1.378906 -3.304688 1.1875 -4.296875 1.1875 -5.421875 C 1.1875 -7.179688 1.613281 -8.550781 2.46875 -9.53125 C 3.320312 -10.519531 4.492188 -11.015625 5.984375 -11.015625 C 7.472656 -11.015625 8.640625 -10.515625 9.484375 -9.515625 C 10.328125 -8.523438 10.75 -7.160156 10.75 -5.421875 Z M 2.21875 -5.421875 C 2.21875 -3.929688 2.539062 -2.769531 3.1875 -1.9375 C 3.84375 -1.113281 4.769531 -0.703125 5.96875 -0.703125 C 7.164062 -0.703125 8.085938 -1.113281 8.734375 -1.9375 C 9.390625 -2.769531 9.71875 -3.929688 9.71875 -5.421875 C 9.71875 -6.910156 9.382812 -8.066406 8.71875 -8.890625 C 8.0625 -9.710938 7.140625 -10.125 5.953125 -10.125 C 4.753906 -10.125 3.832031 -9.710938 3.1875 -8.890625 C 2.539062 -8.078125 2.21875 -6.921875 2.21875 -5.421875 Z M 2.21875 -5.421875 "/></g></g></g><g fill="#000000" fill-opacity="1"><g transform="translate(218.041942, 82.499997)"><g><path d="M 15.328125 0 L 15.328125 -7.09375 C 15.328125 -8.144531 15.117188 -8.910156 14.703125 -9.390625 C 14.296875 -9.878906 13.664062 -10.125 12.8125 -10.125 C 11.707031 -10.125 10.890625 -9.816406 10.359375 -9.203125 C 9.828125 -8.597656 9.5625 -7.644531 9.5625 -6.34375 L 9.5625 0 L 8.5625 0 L 8.5625 -7.390625 C 8.5625 -9.210938 7.722656 -10.125 6.046875 -10.125 C 4.910156 -10.125 4.082031 -9.789062 3.5625 -9.125 C 3.050781 -8.46875 2.796875 -7.414062 2.796875 -5.96875 L 2.796875 0 L 1.8125 0 L 1.8125 -10.8125 L 2.625 -10.8125 L 2.828125 -9.328125 L 2.890625 -9.328125 C 3.191406 -9.867188 3.617188 -10.285156 4.171875 -10.578125 C 4.722656 -10.867188 5.328125 -11.015625 5.984375 -11.015625 C 7.691406 -11.015625 8.785156 -10.378906 9.265625 -9.109375 L 9.3125 -9.109375 C 9.664062 -9.722656 10.140625 -10.191406 10.734375 -10.515625 C 11.328125 -10.847656 12 -11.015625 12.75 -11.015625 C 13.9375 -11.015625 14.820312 -10.703125 15.40625 -10.078125 C 16 -9.453125 16.296875 -8.453125 16.296875 -7.078125 L 16.296875 0 Z M 15.328125 0 "/></g></g></g><g fill="#000000" fill-opacity="1"><g transform="translate(236.022349, 82.499997)"><g><path d="M 15.328125 0 L 15.328125 -7.09375 C 15.328125 -8.144531 15.117188 -8.910156 14.703125 -9.390625 C 14.296875 -9.878906 13.664062 -10.125 12.8125 -10.125 C 11.707031 -10.125 10.890625 -9.816406 10.359375 -9.203125 C 9.828125 -8.597656 9.5625 -7.644531 9.5625 -6.34375 L 9.5625 0 L 8.5625 0 L 8.5625 -7.390625 C 8.5625 -9.210938 7.722656 -10.125 6.046875 -10.125 C 4.910156 -10.125 4.082031 -9.789062 3.5625 -9.125 C 3.050781 -8.46875 2.796875 -7.414062 2.796875 -5.96875 L 2.796875 0 L 1.8125 0 L 1.8125 -10.8125 L 2.625 -10.8125 L 2.828125 -9.328125 L 2.890625 -9.328125 C 3.191406 -9.867188 3.617188 -10.285156 4.171875 -10.578125 C 4.722656 -10.867188 5.328125 -11.015625 5.984375 -11.015625 C 7.691406 -11.015625 8.785156 -10.378906 9.265625 -9.109375 L 9.3125 -9.109375 C 9.664062 -9.722656 10.140625 -10.191406 10.734375 -10.515625 C 11.328125 -10.847656 12 -11.015625 12.75 -11.015625 C 13.9375 -11.015625 14.820312 -10.703125 15.40625 -10.078125 C 16 -9.453125 16.296875 -8.453125 16.296875 -7.078125 L 16.296875 0 Z M 15.328125 0 "/></g></g></g><g fill="#000000" fill-opacity="1"><g transform="translate(254.002755, 82.499997)"><g><path d="M 2.671875 -10.8125 L 2.671875 -3.8125 C 2.671875 -2.71875 2.898438 -1.925781 3.359375 -1.4375 C 3.816406 -0.945312 4.523438 -0.703125 5.484375 -0.703125 C 6.765625 -0.703125 7.707031 -1.023438 8.3125 -1.671875 C 8.925781 -2.316406 9.234375 -3.375 9.234375 -4.84375 L 9.234375 -10.8125 L 10.203125 -10.8125 L 10.203125 0 L 9.375 0 L 9.1875 -1.5 L 9.140625 -1.5 C 8.429688 -0.363281 7.175781 0.203125 5.375 0.203125 C 2.914062 0.203125 1.6875 -1.113281 1.6875 -3.75 L 1.6875 -10.8125 Z M 2.671875 -10.8125 "/></g></g></g><g fill="#000000" fill-opacity="1"><g transform="translate(266.016213, 82.499997)"><g><path d="M 9.359375 0 L 9.359375 -7.015625 C 9.359375 -8.097656 9.128906 -8.882812 8.671875 -9.375 C 8.210938 -9.875 7.5 -10.125 6.53125 -10.125 C 5.238281 -10.125 4.289062 -9.796875 3.6875 -9.140625 C 3.09375 -8.492188 2.796875 -7.4375 2.796875 -5.96875 L 2.796875 0 L 1.8125 0 L 1.8125 -10.8125 L 2.640625 -10.8125 L 2.828125 -9.328125 L 2.890625 -9.328125 C 3.597656 -10.453125 4.847656 -11.015625 6.640625 -11.015625 C 9.097656 -11.015625 10.328125 -9.703125 10.328125 -7.078125 L 10.328125 0 Z M 9.359375 0 "/></g></g></g><g fill="#000000" fill-opacity="1"><g transform="translate(278.02967, 82.499997)"><g><path d="M 2.796875 0 L 1.8125 0 L 1.8125 -10.8125 L 2.796875 -10.8125 Z M 1.671875 -13.8125 C 1.671875 -14.457031 1.878906 -14.78125 2.296875 -14.78125 C 2.503906 -14.78125 2.664062 -14.695312 2.78125 -14.53125 C 2.894531 -14.363281 2.953125 -14.125 2.953125 -13.8125 C 2.953125 -13.519531 2.894531 -13.285156 2.78125 -13.109375 C 2.664062 -12.941406 2.503906 -12.859375 2.296875 -12.859375 C 1.878906 -12.859375 1.671875 -13.175781 1.671875 -13.8125 Z M 1.671875 -13.8125 "/></g></g></g><g fill="#000000" fill-opacity="1"><g transform="translate(282.634166, 82.499997)"><g><path d="M 4.671875 -0.671875 C 5.285156 -0.671875 5.828125 -0.722656 6.296875 -0.828125 L 6.296875 -0.046875 C 5.816406 0.117188 5.265625 0.203125 4.640625 0.203125 C 3.691406 0.203125 2.988281 -0.0507812 2.53125 -0.5625 C 2.070312 -1.070312 1.84375 -1.875 1.84375 -2.96875 L 1.84375 -9.953125 L 0.25 -9.953125 L 0.25 -10.53125 L 1.84375 -10.984375 L 2.34375 -13.4375 L 2.859375 -13.4375 L 2.859375 -10.8125 L 6.03125 -10.8125 L 6.03125 -9.953125 L 2.859375 -9.953125 L 2.859375 -3.109375 C 2.859375 -2.285156 3.003906 -1.671875 3.296875 -1.265625 C 3.585938 -0.867188 4.046875 -0.671875 4.671875 -0.671875 Z M 4.671875 -0.671875 "/></g></g></g><g fill="#000000" fill-opacity="1"><g transform="translate(289.456378, 82.499997)"><g><path d="M 0 -10.8125 L 1.015625 -10.8125 L 3.296875 -4.75 C 3.992188 -2.882812 4.4375 -1.625 4.625 -0.96875 L 4.6875 -0.96875 C 4.96875 -1.832031 5.421875 -3.113281 6.046875 -4.8125 L 8.34375 -10.8125 L 9.359375 -10.8125 L 4.5 1.75 C 4.113281 2.769531 3.785156 3.457031 3.515625 3.8125 C 3.253906 4.175781 2.945312 4.445312 2.59375 4.625 C 2.238281 4.800781 1.804688 4.890625 1.296875 4.890625 C 0.921875 4.890625 0.503906 4.820312 0.046875 4.6875 L 0.046875 3.828125 C 0.421875 3.929688 0.832031 3.984375 1.28125 3.984375 C 1.625 3.984375 1.921875 3.90625 2.171875 3.75 C 2.429688 3.59375 2.664062 3.34375 2.875 3 C 3.082031 2.664062 3.320312 2.132812 3.59375 1.40625 C 3.875 0.6875 4.054688 0.21875 4.140625 0 Z M 0 -10.8125 "/></g></g></g></svg>