<svg xmlns="http://www.w3.org/2000/svg" xmlns:xlink="http://www.w3.org/1999/xlink" width="500" zoomAndPan="magnify" viewBox="0 0 375 149.999998" height="200" preserveAspectRatio="xMidYMid meet" version="1.0"><defs><filter x="0%" y="0%" width="100%" height="100%" id="3763794d80"><feColorMatrix values="0 0 0 0 1 0 0 0 0 1 0 0 0 0 1 0 0 0 1 0" color-interpolation-filters="sRGB"/></filter><g/><mask id="ac42ea30c1"><g filter="url(#3763794d80)"><rect x="-37.5" width="450" fill="#000000" y="-15" height="179.999997" fill-opacity="0.2392"/></g></mask><clipPath id="5f36908925"><path d="M 0.5 0.972656 L 79.789062 0.972656 L 79.789062 80.261719 L 0.5 80.261719 Z M 0.5 0.972656 " clip-rule="nonzero"/></clipPath><clipPath id="2d89ced76a"><path d="M 17.75 0.972656 L 62.539062 0.972656 C 67.113281 0.972656 71.5 2.792969 74.738281 6.027344 C 77.972656 9.261719 79.789062 13.648438 79.789062 18.222656 L 79.789062 63.011719 C 79.789062 67.585938 77.972656 71.976562 74.738281 75.210938 C 71.5 78.445312 67.113281 80.261719 62.539062 80.261719 L 17.75 80.261719 C 13.175781 80.261719 8.789062 78.445312 5.550781 75.210938 C 2.316406 71.976562 0.5 67.585938 0.5 63.011719 L 0.5 18.222656 C 0.5 13.648438 2.316406 9.261719 5.550781 6.027344 C 8.789062 2.792969 13.175781 0.972656 17.75 0.972656 " clip-rule="nonzero"/></clipPath><clipPath id="a480aafa07"><rect x="0" width="80" y="0" height="81"/></clipPath><mask id="4ce8b882e6"><g filter="url(#3763794d80)"><rect x="-37.5" width="450" fill="#000000" y="-15" height="179.999997" fill-opacity="0.2392"/></g></mask><clipPath id="940be3d89a"><path d="M 0.816406 0.539062 L 80.105469 0.539062 L 80.105469 79.828125 L 0.816406 79.828125 Z M 0.816406 0.539062 " clip-rule="nonzero"/></clipPath><clipPath id="2a6b36ecbc"><path d="M 40.460938 0.539062 L 80.105469 40.183594 L 40.460938 79.828125 L 0.816406 40.183594 L 40.460938 0.539062 " clip-rule="nonzero"/></clipPath><clipPath id="2a9a41b494"><rect x="0" width="81" y="0" height="80"/></clipPath><clipPath id="f03adf88e4"><path d="M 9.867188 27.324219 L 89.777344 27.324219 L 89.777344 107.234375 L 9.867188 107.234375 Z M 9.867188 27.324219 " clip-rule="nonzero"/></clipPath><clipPath id="6ab8306113"><path d="M 27.117188 27.324219 L 72.527344 27.324219 C 77.101562 27.324219 81.488281 29.140625 84.726562 32.375 C 87.960938 35.609375 89.777344 40 89.777344 44.574219 L 89.777344 89.984375 C 89.777344 94.558594 87.960938 98.945312 84.726562 102.179688 C 81.488281 105.417969 77.101562 107.234375 72.527344 107.234375 L 27.117188 107.234375 C 22.542969 107.234375 18.152344 105.417969 14.917969 102.179688 C 11.683594 98.945312 9.867188 94.558594 9.867188 89.984375 L 9.867188 44.574219 C 9.867188 40 11.683594 35.609375 14.917969 32.375 C 18.152344 29.140625 22.542969 27.324219 27.117188 27.324219 " clip-rule="nonzero"/></clipPath><clipPath id="cd21db59ff"><path d="M 34.371094 60.144531 L 114.28125 60.144531 L 114.28125 140.054688 L 34.371094 140.054688 Z M 34.371094 60.144531 " clip-rule="nonzero"/></clipPath><clipPath id="2ff88a58c4"><path d="M 74.328125 60.144531 L 114.28125 100.101562 L 74.328125 140.054688 L 34.371094 100.101562 L 74.328125 60.144531 " clip-rule="nonzero"/></clipPath></defs><g mask="url(#ac42ea30c1)"><g transform="matrix(1, 0, 0, 1, 7, 29)"><g clip-path="url(#a480aafa07)"><g clip-path="url(#5f36908925)"><g clip-path="url(#2d89ced76a)"><path fill="#545454" d="M 0.5 0.972656 L 79.789062 0.972656 L 79.789062 80.261719 L 0.5 80.261719 Z M 0.5 0.972656 " fill-opacity="1" fill-rule="nonzero"/></g></g></g></g></g><g mask="url(#4ce8b882e6)"><g transform="matrix(1, 0, 0, 1, 31, 62)"><g clip-path="url(#2a9a41b494)"><g clip-path="url(#940be3d89a)"><g clip-path="url(#2a6b36ecbc)"><path fill="#545454" d="M 0.816406 0.539062 L 80.105469 0.539062 L 80.105469 79.828125 L 0.816406 79.828125 Z M 0.816406 0.539062 " fill-opacity="1" fill-rule="nonzero"/></g></g></g></g></g><g clip-path="url(#f03adf88e4)"><g clip-path="url(#6ab8306113)"><path fill="#38b6ff" d="M 9.867188 27.324219 L 89.777344 27.324219 L 89.777344 107.234375 L 9.867188 107.234375 Z M 9.867188 27.324219 " fill-opacity="1" fill-rule="nonzero"/></g></g><g clip-path="url(#cd21db59ff)"><g clip-path="url(#2ff88a58c4)"><path fill="#008dec" d="M 34.371094 60.144531 L 114.28125 60.144531 L 114.28125 140.054688 L 34.371094 140.054688 Z M 34.371094 60.144531 " fill-opacity="1" fill-rule="nonzero"/></g></g><g fill="#000000" fill-opacity="1"><g transform="translate(95.967256, 83.132025)"><g><path d="M 22.898438 0.578125 C 32.347656 0.578125 38.605469 -4.578125 40.054688 -12.519531 L 35.824219 -12.519531 C 34.605469 -6.433594 29.679688 -3.015625 22.78125 -3.015625 C 12.171875 -3.015625 6.898438 -11.304688 6.898438 -22.144531 C 6.898438 -32.925781 12.171875 -41.214844 22.78125 -41.214844 C 29.679688 -41.214844 34.664062 -37.796875 35.824219 -32.519531 L 40.054688 -32.519531 C 38.664062 -39.707031 32.347656 -44.808594 22.898438 -44.808594 C 9.21875 -44.808594 2.898438 -34.144531 2.898438 -22.144531 C 2.898438 -10.144531 9.21875 0.578125 22.898438 0.578125 Z M 22.898438 0.578125 "/></g></g></g><g fill="#000000" fill-opacity="1"><g transform="translate(135.897724, 83.132025)"><g><path d="M 17.679688 -32.402344 C 13.214844 -32.402344 9.96875 -30.605469 7.882812 -27.070312 L 7.882812 -31.824219 L 4.117188 -31.824219 L 4.117188 0 L 7.882812 0 L 7.882812 -15.535156 C 7.882812 -20.289062 8.636719 -23.59375 10.492188 -25.910156 C 12 -27.824219 14.261719 -28.695312 17.273438 -28.695312 L 18.722656 -28.695312 L 18.722656 -32.402344 Z M 17.679688 -32.402344 "/></g></g></g><g fill="#000000" fill-opacity="1"><g transform="translate(153.341545, 83.132025)"><g><path d="M 18.027344 0.578125 C 27.011719 0.578125 33.390625 -6.550781 33.390625 -16.058594 C 33.390625 -25.390625 26.898438 -32.402344 18.027344 -32.402344 C 9.160156 -32.402344 2.78125 -25.390625 2.78125 -16.058594 C 2.78125 -6.433594 9.160156 0.578125 18.027344 0.578125 Z M 18.027344 -2.78125 C 11.476562 -2.78125 6.550781 -8.347656 6.550781 -16.058594 C 6.550781 -23.476562 11.417969 -29.042969 18.027344 -29.042969 C 24.695312 -29.042969 29.621094 -23.417969 29.621094 -16.058594 C 29.621094 -8.464844 24.636719 -2.78125 18.027344 -2.78125 Z M 18.027344 -2.78125 "/></g></g></g><g fill="#000000" fill-opacity="1"><g transform="translate(187.012834, 83.132025)"><g><path d="M 7.882812 0 L 7.882812 -12.578125 C 7.882812 -19.882812 9.160156 -23.941406 11.417969 -26.433594 C 12.984375 -28.113281 15.070312 -29.042969 17.507812 -29.042969 C 20.113281 -29.042969 22.085938 -28.054688 23.304688 -26.085938 C 24.230469 -24.578125 24.695312 -22.433594 24.695312 -19.710938 L 24.695312 0 L 28.460938 0 L 28.460938 -19.535156 C 28.460938 -21.679688 28.460938 -24.808594 26.898438 -27.535156 C 25.214844 -30.492188 22.257812 -32.402344 18.316406 -32.402344 C 13.855469 -32.402344 10.492188 -30.605469 7.882812 -26.492188 L 7.882812 -31.824219 L 4.117188 -31.824219 L 4.117188 0 Z M 7.882812 0 "/></g></g></g><g fill="#000000" fill-opacity="1"><g transform="translate(216.801133, 83.132025)"><g><path d="M 18.027344 0.578125 C 27.011719 0.578125 33.390625 -6.550781 33.390625 -16.058594 C 33.390625 -25.390625 26.898438 -32.402344 18.027344 -32.402344 C 9.160156 -32.402344 2.78125 -25.390625 2.78125 -16.058594 C 2.78125 -6.433594 9.160156 0.578125 18.027344 0.578125 Z M 18.027344 -2.78125 C 11.476562 -2.78125 6.550781 -8.347656 6.550781 -16.058594 C 6.550781 -23.476562 11.417969 -29.042969 18.027344 -29.042969 C 24.695312 -29.042969 29.621094 -23.417969 29.621094 -16.058594 C 29.621094 -8.464844 24.636719 -2.78125 18.027344 -2.78125 Z M 18.027344 -2.78125 "/></g></g></g><g fill="#000000" fill-opacity="1"><g transform="translate(250.47243, 83.132025)"><g><path d="M 8.578125 0 L 8.578125 -19.246094 L 19.882812 -19.246094 C 28.519531 -19.246094 33.910156 -23.824219 33.910156 -31.765625 C 33.910156 -39.996094 28.40625 -44.230469 19.882812 -44.230469 L 4.578125 -44.230469 L 4.578125 0 Z M 8.578125 -40.636719 L 19.359375 -40.636719 C 26.085938 -40.636719 29.96875 -37.332031 29.96875 -31.652344 C 29.96875 -25.910156 26.203125 -22.722656 19.359375 -22.722656 L 8.578125 -22.722656 Z M 8.578125 -40.636719 "/></g></g></g><g fill="#000000" fill-opacity="1"><g transform="translate(283.853955, 83.132025)"><g><path d="M 17.679688 -32.402344 C 13.214844 -32.402344 9.96875 -30.605469 7.882812 -27.070312 L 7.882812 -31.824219 L 4.117188 -31.824219 L 4.117188 0 L 7.882812 0 L 7.882812 -15.535156 C 7.882812 -20.289062 8.636719 -23.59375 10.492188 -25.910156 C 12 -27.824219 14.261719 -28.695312 17.273438 -28.695312 L 18.722656 -28.695312 L 18.722656 -32.402344 Z M 17.679688 -32.402344 "/></g></g></g><g fill="#000000" fill-opacity="1"><g transform="translate(301.297778, 83.132025)"><g><path d="M 18.027344 0.578125 C 27.011719 0.578125 33.390625 -6.550781 33.390625 -16.058594 C 33.390625 -25.390625 26.898438 -32.402344 18.027344 -32.402344 C 9.160156 -32.402344 2.78125 -25.390625 2.78125 -16.058594 C 2.78125 -6.433594 9.160156 0.578125 18.027344 0.578125 Z M 18.027344 -2.78125 C 11.476562 -2.78125 6.550781 -8.347656 6.550781 -16.058594 C 6.550781 -23.476562 11.417969 -29.042969 18.027344 -29.042969 C 24.695312 -29.042969 29.621094 -23.417969 29.621094 -16.058594 C 29.621094 -8.464844 24.636719 -2.78125 18.027344 -2.78125 Z M 18.027344 -2.78125 "/></g></g></g><g fill="#000000" fill-opacity="1"><g transform="translate(334.969075, 83.132025)"><g><path d="M 10.609375 0 L 10.609375 -28.460938 L 18.664062 -28.460938 L 18.664062 -31.824219 L 10.609375 -31.824219 L 10.609375 -35.824219 C 10.609375 -39.996094 12.695312 -40.867188 15.652344 -40.867188 L 18.664062 -40.867188 L 18.664062 -44.230469 L 14.839844 -44.230469 C 9.507812 -44.230469 6.839844 -41.214844 6.839844 -35.417969 L 6.839844 -31.824219 L 1.507812 -31.824219 L 1.507812 -28.460938 L 6.839844 -28.460938 L 6.839844 0 Z M 10.609375 0 "/></g></g></g><g fill="#000000" fill-opacity="1"><g transform="translate(154.021184, 110.559957)"><g><path d="M 8.546875 0.28125 C 6.390625 0.28125 4.703125 -0.394531 3.484375 -1.75 C 2.265625 -3.113281 1.65625 -5.015625 1.65625 -7.453125 C 1.65625 -9.941406 2.285156 -11.882812 3.546875 -13.28125 C 4.816406 -14.675781 6.550781 -15.375 8.75 -15.375 C 10.050781 -15.375 11.300781 -15.144531 12.5 -14.6875 L 12.125 -13.46875 C 10.820312 -13.90625 9.6875 -14.125 8.71875 -14.125 C 6.875 -14.125 5.472656 -13.550781 4.515625 -12.40625 C 3.566406 -11.257812 3.09375 -9.613281 3.09375 -7.46875 C 3.09375 -5.4375 3.566406 -3.84375 4.515625 -2.6875 C 5.472656 -1.539062 6.804688 -0.96875 8.515625 -0.96875 C 9.878906 -0.96875 11.148438 -1.210938 12.328125 -1.703125 L 12.328125 -0.4375 C 11.367188 0.0390625 10.109375 0.28125 8.546875 0.28125 Z M 8.546875 0.28125 "/></g></g></g><g fill="#000000" fill-opacity="1"><g transform="translate(167.516048, 110.559957)"><g><path d="M 15 -7.5625 C 15 -5.101562 14.398438 -3.179688 13.203125 -1.796875 C 12.015625 -0.410156 10.367188 0.28125 8.265625 0.28125 C 6.941406 0.28125 5.773438 -0.0351562 4.765625 -0.671875 C 3.765625 -1.316406 2.992188 -2.234375 2.453125 -3.421875 C 1.921875 -4.617188 1.65625 -6 1.65625 -7.5625 C 1.65625 -10.019531 2.25 -11.9375 3.4375 -13.3125 C 4.632812 -14.6875 6.269531 -15.375 8.34375 -15.375 C 10.414062 -15.375 12.039062 -14.675781 13.21875 -13.28125 C 14.40625 -11.882812 15 -9.976562 15 -7.5625 Z M 3.09375 -7.5625 C 3.09375 -5.488281 3.546875 -3.867188 4.453125 -2.703125 C 5.367188 -1.546875 6.660156 -0.96875 8.328125 -0.96875 C 9.984375 -0.96875 11.265625 -1.546875 12.171875 -2.703125 C 13.085938 -3.867188 13.546875 -5.488281 13.546875 -7.5625 C 13.546875 -9.644531 13.085938 -11.257812 12.171875 -12.40625 C 11.253906 -13.550781 9.960938 -14.125 8.296875 -14.125 C 6.628906 -14.125 5.34375 -13.550781 4.4375 -12.40625 C 3.539062 -11.257812 3.09375 -9.644531 3.09375 -7.5625 Z M 3.09375 -7.5625 "/></g></g></g><g fill="#000000" fill-opacity="1"><g transform="translate(184.159251, 110.559957)"><g><path d="M 21.359375 0 L 21.359375 -9.890625 C 21.359375 -11.359375 21.070312 -12.429688 20.5 -13.109375 C 19.925781 -13.785156 19.046875 -14.125 17.859375 -14.125 C 16.316406 -14.125 15.175781 -13.695312 14.4375 -12.84375 C 13.695312 -11.988281 13.328125 -10.648438 13.328125 -8.828125 L 13.328125 0 L 11.921875 0 L 11.921875 -10.3125 C 11.921875 -12.851562 10.757812 -14.125 8.4375 -14.125 C 6.851562 -14.125 5.695312 -13.660156 4.96875 -12.734375 C 4.25 -11.816406 3.890625 -10.347656 3.890625 -8.328125 L 3.890625 0 L 2.53125 0 L 2.53125 -15.078125 L 3.65625 -15.078125 L 3.953125 -13.015625 L 4.03125 -13.015625 C 4.445312 -13.765625 5.039062 -14.34375 5.8125 -14.75 C 6.582031 -15.164062 7.425781 -15.375 8.34375 -15.375 C 10.726562 -15.375 12.253906 -14.476562 12.921875 -12.6875 L 12.984375 -12.6875 C 13.472656 -13.550781 14.128906 -14.210938 14.953125 -14.671875 C 15.785156 -15.140625 16.726562 -15.375 17.78125 -15.375 C 19.425781 -15.375 20.660156 -14.929688 21.484375 -14.046875 C 22.304688 -13.171875 22.71875 -11.773438 22.71875 -9.859375 L 22.71875 0 Z M 21.359375 0 "/></g></g></g><g fill="#000000" fill-opacity="1"><g transform="translate(209.235009, 110.559957)"><g><path d="M 21.359375 0 L 21.359375 -9.890625 C 21.359375 -11.359375 21.070312 -12.429688 20.5 -13.109375 C 19.925781 -13.785156 19.046875 -14.125 17.859375 -14.125 C 16.316406 -14.125 15.175781 -13.695312 14.4375 -12.84375 C 13.695312 -11.988281 13.328125 -10.648438 13.328125 -8.828125 L 13.328125 0 L 11.921875 0 L 11.921875 -10.3125 C 11.921875 -12.851562 10.757812 -14.125 8.4375 -14.125 C 6.851562 -14.125 5.695312 -13.660156 4.96875 -12.734375 C 4.25 -11.816406 3.890625 -10.347656 3.890625 -8.328125 L 3.890625 0 L 2.53125 0 L 2.53125 -15.078125 L 3.65625 -15.078125 L 3.953125 -13.015625 L 4.03125 -13.015625 C 4.445312 -13.765625 5.039062 -14.34375 5.8125 -14.75 C 6.582031 -15.164062 7.425781 -15.375 8.34375 -15.375 C 10.726562 -15.375 12.253906 -14.476562 12.921875 -12.6875 L 12.984375 -12.6875 C 13.472656 -13.550781 14.128906 -14.210938 14.953125 -14.671875 C 15.785156 -15.140625 16.726562 -15.375 17.78125 -15.375 C 19.425781 -15.375 20.660156 -14.929688 21.484375 -14.046875 C 22.304688 -13.171875 22.71875 -11.773438 22.71875 -9.859375 L 22.71875 0 Z M 21.359375 0 "/></g></g></g><g fill="#000000" fill-opacity="1"><g transform="translate(234.310768, 110.559957)"><g><path d="M 3.71875 -15.078125 L 3.71875 -5.3125 C 3.71875 -3.789062 4.035156 -2.6875 4.671875 -2 C 5.304688 -1.3125 6.296875 -0.96875 7.640625 -0.96875 C 9.429688 -0.96875 10.75 -1.421875 11.59375 -2.328125 C 12.445312 -3.234375 12.875 -4.707031 12.875 -6.75 L 12.875 -15.078125 L 14.234375 -15.078125 L 14.234375 0 L 13.0625 0 L 12.8125 -2.078125 L 12.734375 -2.078125 C 11.753906 -0.503906 10.007812 0.28125 7.5 0.28125 C 4.070312 0.28125 2.359375 -1.554688 2.359375 -5.234375 L 2.359375 -15.078125 Z M 3.71875 -15.078125 "/></g></g></g><g fill="#000000" fill-opacity="1"><g transform="translate(251.064926, 110.559957)"><g><path d="M 13.03125 0 L 13.03125 -9.78125 C 13.03125 -11.289062 12.710938 -12.390625 12.078125 -13.078125 C 11.441406 -13.773438 10.453125 -14.125 9.109375 -14.125 C 7.304688 -14.125 5.984375 -13.664062 5.140625 -12.75 C 4.304688 -11.84375 3.890625 -10.367188 3.890625 -8.328125 L 3.890625 0 L 2.53125 0 L 2.53125 -15.078125 L 3.6875 -15.078125 L 3.953125 -13.015625 L 4.03125 -13.015625 C 5.007812 -14.585938 6.753906 -15.375 9.265625 -15.375 C 12.679688 -15.375 14.390625 -13.535156 14.390625 -9.859375 L 14.390625 0 Z M 13.03125 0 "/></g></g></g><g fill="#000000" fill-opacity="1"><g transform="translate(267.819083, 110.559957)"><g><path d="M 3.890625 0 L 2.53125 0 L 2.53125 -15.078125 L 3.890625 -15.078125 Z M 2.328125 -19.265625 C 2.328125 -20.148438 2.617188 -20.59375 3.203125 -20.59375 C 3.492188 -20.59375 3.71875 -20.476562 3.875 -20.25 C 4.039062 -20.019531 4.125 -19.691406 4.125 -19.265625 C 4.125 -18.847656 4.039062 -18.519531 3.875 -18.28125 C 3.71875 -18.039062 3.492188 -17.921875 3.203125 -17.921875 C 2.617188 -17.921875 2.328125 -18.367188 2.328125 -19.265625 Z M 2.328125 -19.265625 "/></g></g></g><g fill="#000000" fill-opacity="1"><g transform="translate(274.240585, 110.559957)"><g><path d="M 6.5 -0.9375 C 7.375 -0.9375 8.132812 -1.015625 8.78125 -1.171875 L 8.78125 -0.0625 C 8.113281 0.164062 7.347656 0.28125 6.484375 0.28125 C 5.148438 0.28125 4.164062 -0.0703125 3.53125 -0.78125 C 2.894531 -1.5 2.578125 -2.617188 2.578125 -4.140625 L 2.578125 -13.890625 L 0.34375 -13.890625 L 0.34375 -14.6875 L 2.578125 -15.3125 L 3.265625 -18.71875 L 3.984375 -18.71875 L 3.984375 -15.078125 L 8.40625 -15.078125 L 8.40625 -13.890625 L 3.984375 -13.890625 L 3.984375 -4.34375 C 3.984375 -3.1875 4.1875 -2.328125 4.59375 -1.765625 C 5 -1.210938 5.632812 -0.9375 6.5 -0.9375 Z M 6.5 -0.9375 "/></g></g></g><g fill="#000000" fill-opacity="1"><g transform="translate(283.75495, 110.559957)"><g><path d="M 0 -15.078125 L 1.421875 -15.078125 L 4.609375 -6.609375 C 5.578125 -4.015625 6.191406 -2.265625 6.453125 -1.359375 L 6.53125 -1.359375 C 6.914062 -2.554688 7.550781 -4.335938 8.4375 -6.703125 L 11.625 -15.078125 L 13.03125 -15.078125 L 6.28125 2.4375 C 5.738281 3.863281 5.28125 4.828125 4.90625 5.328125 C 4.539062 5.828125 4.109375 6.203125 3.609375 6.453125 C 3.117188 6.703125 2.519531 6.828125 1.8125 6.828125 C 1.289062 6.828125 0.707031 6.726562 0.0625 6.53125 L 0.0625 5.34375 C 0.59375 5.488281 1.171875 5.5625 1.796875 5.5625 C 2.265625 5.5625 2.675781 5.445312 3.03125 5.21875 C 3.394531 5 3.722656 4.65625 4.015625 4.1875 C 4.304688 3.726562 4.644531 2.988281 5.03125 1.96875 C 5.414062 0.957031 5.660156 0.300781 5.765625 0 Z M 0 -15.078125 "/></g></g></g></svg>