<svg xmlns="http://www.w3.org/2000/svg" xmlns:xlink="http://www.w3.org/1999/xlink" width="500" zoomAndPan="magnify" viewBox="0 0 375 149.999998" height="200" preserveAspectRatio="xMidYMid meet" version="1.0"><defs><filter x="0%" y="0%" width="100%" height="100%" id="9a60621f87"><feColorMatrix values="0 0 0 0 1 0 0 0 0 1 0 0 0 0 1 0 0 0 1 0" color-interpolation-filters="sRGB"/></filter><g/><mask id="fa805f4dc6"><g filter="url(#9a60621f87)"><rect x="-37.5" width="450" fill="#000000" y="-15" height="179.999997" fill-opacity="0.2392"/></g></mask><clipPath id="b2874fec72"><path d="M 0.988281 0.472656 L 104.855469 0.472656 L 104.855469 104.339844 L 0.988281 104.339844 Z M 0.988281 0.472656 " clip-rule="nonzero"/></clipPath><clipPath id="441cb35535"><path d="M 18.238281 0.472656 L 87.605469 0.472656 C 97.128906 0.472656 104.855469 8.195312 104.855469 17.722656 L 104.855469 87.089844 C 104.855469 96.617188 97.128906 104.339844 87.605469 104.339844 L 18.238281 104.339844 C 8.710938 104.339844 0.988281 96.617188 0.988281 87.089844 L 0.988281 17.722656 C 0.988281 8.195312 8.710938 0.472656 18.238281 0.472656 " clip-rule="nonzero"/></clipPath><clipPath id="b8d6e48cfd"><rect x="0" width="105" y="0" height="105"/></clipPath><mask id="0f12225011"><g filter="url(#9a60621f87)"><rect x="-37.5" width="450" fill="#000000" y="-15" height="179.999997" fill-opacity="0.2392"/></g></mask><clipPath id="6ec4906dd1"><path d="M 0.839844 0.132812 L 104.707031 0.132812 L 104.707031 104 L 0.839844 104 Z M 0.839844 0.132812 " clip-rule="nonzero"/></clipPath><clipPath id="1ee9ae102b"><path d="M 52.773438 0.132812 L 104.707031 52.066406 L 52.773438 104 L 0.839844 52.066406 L 52.773438 0.132812 " clip-rule="nonzero"/></clipPath><clipPath id="e7d6f654a4"><rect x="0" width="105" y="0" height="104"/></clipPath><clipPath id="6963f34dad"><path d="M 38.085938 0 L 142.769531 0 L 142.769531 104.679688 L 38.085938 104.679688 Z M 38.085938 0 " clip-rule="nonzero"/></clipPath><clipPath id="8b6305712d"><path d="M 55.335938 0 L 125.519531 0 C 130.09375 0 134.480469 1.816406 137.714844 5.050781 C 140.949219 8.289062 142.769531 12.675781 142.769531 17.25 L 142.769531 87.429688 C 142.769531 92.007812 140.949219 96.394531 137.714844 99.628906 C 134.480469 102.863281 130.09375 104.679688 125.519531 104.679688 L 55.335938 104.679688 C 50.761719 104.679688 46.375 102.863281 43.140625 99.628906 C 39.902344 96.394531 38.085938 92.007812 38.085938 87.429688 L 38.085938 17.25 C 38.085938 12.675781 39.902344 8.289062 43.140625 5.050781 C 46.375 1.816406 50.761719 0 55.335938 0 " clip-rule="nonzero"/></clipPath><clipPath id="54b0c6d907"><path d="M 70.1875 42.996094 L 174.871094 42.996094 L 174.871094 147.675781 L 70.1875 147.675781 Z M 70.1875 42.996094 " clip-rule="nonzero"/></clipPath><clipPath id="c33149afbb"><path d="M 122.53125 42.996094 L 174.871094 95.335938 L 122.53125 147.675781 L 70.1875 95.335938 L 122.53125 42.996094 " clip-rule="nonzero"/></clipPath></defs><g mask="url(#fa805f4dc6)"><g transform="matrix(1, 0, 0, 1, 34, 3)"><g clip-path="url(#b8d6e48cfd)"><g clip-path="url(#b2874fec72)"><g clip-path="url(#441cb35535)"><path fill="#545454" d="M 0.988281 0.472656 L 104.855469 0.472656 L 104.855469 104.339844 L 0.988281 104.339844 Z M 0.988281 0.472656 " fill-opacity="1" fill-rule="nonzero"/></g></g></g></g></g><g mask="url(#0f12225011)"><g transform="matrix(1, 0, 0, 1, 66, 46)"><g clip-path="url(#e7d6f654a4)"><g clip-path="url(#6ec4906dd1)"><g clip-path="url(#1ee9ae102b)"><path fill="#545454" d="M 0.839844 0.132812 L 104.707031 0.132812 L 104.707031 104 L 0.839844 104 Z M 0.839844 0.132812 " fill-opacity="1" fill-rule="nonzero"/></g></g></g></g></g><g clip-path="url(#6963f34dad)"><g clip-path="url(#8b6305712d)"><path fill="#38b6ff" d="M 38.085938 0 L 142.769531 0 L 142.769531 104.679688 L 38.085938 104.679688 Z M 38.085938 0 " fill-opacity="1" fill-rule="nonzero"/></g></g><g clip-path="url(#54b0c6d907)"><g clip-path="url(#c33149afbb)"><path fill="#008dec" d="M 70.1875 42.996094 L 174.871094 42.996094 L 174.871094 147.675781 L 70.1875 147.675781 Z M 70.1875 42.996094 " fill-opacity="1" fill-rule="nonzero"/></g></g><g fill="#000000" fill-opacity="1"><g transform="translate(149.744274, 60.477026)"><g><path d="M 16.417969 0.414062 C 23.195312 0.414062 27.683594 -3.285156 28.722656 -8.976562 L 25.6875 -8.976562 C 24.816406 -4.613281 21.28125 -2.160156 16.335938 -2.160156 C 8.730469 -2.160156 4.945312 -8.105469 4.945312 -15.878906 C 4.945312 -23.609375 8.730469 -29.554688 16.335938 -29.554688 C 21.28125 -29.554688 24.855469 -27.101562 25.6875 -23.316406 L 28.722656 -23.316406 C 27.722656 -28.472656 23.195312 -32.128906 16.417969 -32.128906 C 6.609375 -32.128906 2.078125 -24.480469 2.078125 -15.878906 C 2.078125 -7.273438 6.609375 0.414062 16.417969 0.414062 Z M 16.417969 0.414062 "/></g></g></g><g fill="#000000" fill-opacity="1"><g transform="translate(178.376155, 60.477026)"><g><path d="M 12.675781 -23.234375 C 9.476562 -23.234375 7.148438 -21.945312 5.652344 -19.410156 L 5.652344 -22.820312 L 2.949219 -22.820312 L 2.949219 0 L 5.652344 0 L 5.652344 -11.140625 C 5.652344 -14.546875 6.191406 -16.917969 7.523438 -18.578125 C 8.605469 -19.953125 10.226562 -20.574219 12.386719 -20.574219 L 13.425781 -20.574219 L 13.425781 -23.234375 Z M 12.675781 -23.234375 "/></g></g></g><g fill="#000000" fill-opacity="1"><g transform="translate(190.884133, 60.477026)"><g><path d="M 12.925781 0.414062 C 19.371094 0.414062 23.941406 -4.695312 23.941406 -11.511719 C 23.941406 -18.207031 19.285156 -23.234375 12.925781 -23.234375 C 6.566406 -23.234375 1.996094 -18.207031 1.996094 -11.511719 C 1.996094 -4.613281 6.566406 0.414062 12.925781 0.414062 Z M 12.925781 -1.996094 C 8.230469 -1.996094 4.695312 -5.984375 4.695312 -11.511719 C 4.695312 -16.835938 8.1875 -20.824219 12.925781 -20.824219 C 17.707031 -20.824219 21.238281 -16.792969 21.238281 -11.511719 C 21.238281 -6.070312 17.664062 -1.996094 12.925781 -1.996094 Z M 12.925781 -1.996094 "/></g></g></g><g fill="#000000" fill-opacity="1"><g transform="translate(215.02791, 60.477026)"><g><path d="M 5.652344 0 L 5.652344 -9.019531 C 5.652344 -14.257812 6.566406 -17.167969 8.1875 -18.953125 C 9.3125 -20.160156 10.808594 -20.824219 12.554688 -20.824219 C 14.421875 -20.824219 15.835938 -20.117188 16.710938 -18.703125 C 17.375 -17.625 17.707031 -16.085938 17.707031 -14.132812 L 17.707031 0 L 20.410156 0 L 20.410156 -14.007812 C 20.410156 -15.546875 20.410156 -17.789062 19.285156 -19.742188 C 18.082031 -21.863281 15.960938 -23.234375 13.132812 -23.234375 C 9.933594 -23.234375 7.523438 -21.945312 5.652344 -18.996094 L 5.652344 -22.820312 L 2.949219 -22.820312 L 2.949219 0 Z M 5.652344 0 "/></g></g></g><g fill="#000000" fill-opacity="1"><g transform="translate(236.387416, 60.477026)"><g><path d="M 12.925781 0.414062 C 19.371094 0.414062 23.941406 -4.695312 23.941406 -11.511719 C 23.941406 -18.207031 19.285156 -23.234375 12.925781 -23.234375 C 6.566406 -23.234375 1.996094 -18.207031 1.996094 -11.511719 C 1.996094 -4.613281 6.566406 0.414062 12.925781 0.414062 Z M 12.925781 -1.996094 C 8.230469 -1.996094 4.695312 -5.984375 4.695312 -11.511719 C 4.695312 -16.835938 8.1875 -20.824219 12.925781 -20.824219 C 17.707031 -20.824219 21.238281 -16.792969 21.238281 -11.511719 C 21.238281 -6.070312 17.664062 -1.996094 12.925781 -1.996094 Z M 12.925781 -1.996094 "/></g></g></g><g fill="#000000" fill-opacity="1"><g transform="translate(260.531199, 60.477026)"><g><path d="M 6.152344 0 L 6.152344 -13.800781 L 14.257812 -13.800781 C 20.449219 -13.800781 24.316406 -17.082031 24.316406 -22.777344 C 24.316406 -28.679688 20.367188 -31.714844 14.257812 -31.714844 L 3.285156 -31.714844 L 3.285156 0 Z M 6.152344 -29.136719 L 13.882812 -29.136719 C 18.703125 -29.136719 21.488281 -26.769531 21.488281 -22.695312 C 21.488281 -18.578125 18.789062 -16.292969 13.882812 -16.292969 L 6.152344 -16.292969 Z M 6.152344 -29.136719 "/></g></g></g><g fill="#000000" fill-opacity="1"><g transform="translate(284.467203, 60.477026)"><g><path d="M 12.675781 -23.234375 C 9.476562 -23.234375 7.148438 -21.945312 5.652344 -19.410156 L 5.652344 -22.820312 L 2.949219 -22.820312 L 2.949219 0 L 5.652344 0 L 5.652344 -11.140625 C 5.652344 -14.546875 6.191406 -16.917969 7.523438 -18.578125 C 8.605469 -19.953125 10.226562 -20.574219 12.386719 -20.574219 L 13.425781 -20.574219 L 13.425781 -23.234375 Z M 12.675781 -23.234375 "/></g></g></g><g fill="#000000" fill-opacity="1"><g transform="translate(296.975182, 60.477026)"><g><path d="M 12.925781 0.414062 C 19.371094 0.414062 23.941406 -4.695312 23.941406 -11.511719 C 23.941406 -18.207031 19.285156 -23.234375 12.925781 -23.234375 C 6.566406 -23.234375 1.996094 -18.207031 1.996094 -11.511719 C 1.996094 -4.613281 6.566406 0.414062 12.925781 0.414062 Z M 12.925781 -1.996094 C 8.230469 -1.996094 4.695312 -5.984375 4.695312 -11.511719 C 4.695312 -16.835938 8.1875 -20.824219 12.925781 -20.824219 C 17.707031 -20.824219 21.238281 -16.792969 21.238281 -11.511719 C 21.238281 -6.070312 17.664062 -1.996094 12.925781 -1.996094 Z M 12.925781 -1.996094 "/></g></g></g><g fill="#000000" fill-opacity="1"><g transform="translate(321.118966, 60.477026)"><g><path d="M 7.605469 0 L 7.605469 -20.410156 L 13.382812 -20.410156 L 13.382812 -22.820312 L 7.605469 -22.820312 L 7.605469 -25.6875 C 7.605469 -28.679688 9.101562 -29.304688 11.222656 -29.304688 L 13.382812 -29.304688 L 13.382812 -31.714844 L 10.640625 -31.714844 C 6.816406 -31.714844 4.90625 -29.554688 4.90625 -25.398438 L 4.90625 -22.820312 L 1.082031 -22.820312 L 1.082031 -20.410156 L 4.90625 -20.410156 L 4.90625 0 Z M 7.605469 0 "/></g></g></g></svg>