<svg xmlns="http://www.w3.org/2000/svg" xmlns:xlink="http://www.w3.org/1999/xlink" width="500" zoomAndPan="magnify" viewBox="0 0 375 374.999991" height="500" preserveAspectRatio="xMidYMid meet" version="1.0"><defs><filter x="0%" y="0%" width="100%" height="100%" id="3ca7a4bd97"><feColorMatrix values="0 0 0 0 1 0 0 0 0 1 0 0 0 0 1 0 0 0 1 0" color-interpolation-filters="sRGB"/></filter><g/><mask id="00f6b8374c"><g filter="url(#3ca7a4bd97)"><rect x="-37.5" width="450" fill="#000000" y="-37.499999" height="449.999989" fill-opacity="0.2392"/></g></mask><clipPath id="f8253d77f3"><path d="M 0.566406 0.628906 L 112.191406 0.628906 L 112.191406 112.253906 L 0.566406 112.253906 Z M 0.566406 0.628906 " clip-rule="nonzero"/></clipPath><clipPath id="d9ef91e78c"><path d="M 17.816406 0.628906 L 94.941406 0.628906 C 104.46875 0.628906 112.191406 8.351562 112.191406 17.878906 L 112.191406 95.003906 C 112.191406 104.53125 104.46875 112.253906 94.941406 112.253906 L 17.816406 112.253906 C 8.289062 112.253906 0.566406 104.53125 0.566406 95.003906 L 0.566406 17.878906 C 0.566406 8.351562 8.289062 0.628906 17.816406 0.628906 " clip-rule="nonzero"/></clipPath><clipPath id="a2073fa6e6"><rect x="0" width="113" y="0" height="113"/></clipPath><mask id="fb953151b6"><g filter="url(#3ca7a4bd97)"><rect x="-37.5" width="450" fill="#000000" y="-37.499999" height="449.999989" fill-opacity="0.2392"/></g></mask><clipPath id="a6916f4fda"><path d="M 0.796875 0.476562 L 112.421875 0.476562 L 112.421875 112.101562 L 0.796875 112.101562 Z M 0.796875 0.476562 " clip-rule="nonzero"/></clipPath><clipPath id="91e087fb00"><path d="M 56.609375 0.476562 L 112.421875 56.289062 L 56.609375 112.101562 L 0.796875 56.289062 L 56.609375 0.476562 " clip-rule="nonzero"/></clipPath><clipPath id="c86cb2daf5"><rect x="0" width="113" y="0" height="113"/></clipPath><clipPath id="2e92d359e1"><path d="M 29.898438 106.898438 L 142.398438 106.898438 L 142.398438 219.398438 L 29.898438 219.398438 Z M 29.898438 106.898438 " clip-rule="nonzero"/></clipPath><clipPath id="2e4197eb16"><path d="M 47.148438 106.898438 L 125.148438 106.898438 C 129.722656 106.898438 134.109375 108.714844 137.347656 111.949219 C 140.582031 115.1875 142.398438 119.574219 142.398438 124.148438 L 142.398438 202.148438 C 142.398438 206.722656 140.582031 211.109375 137.347656 214.347656 C 134.109375 217.582031 129.722656 219.398438 125.148438 219.398438 L 47.148438 219.398438 C 42.574219 219.398438 38.1875 217.582031 34.949219 214.347656 C 31.714844 211.109375 29.898438 206.722656 29.898438 202.148438 L 29.898438 124.148438 C 29.898438 119.574219 31.714844 115.1875 34.949219 111.949219 C 38.1875 108.714844 42.574219 106.898438 47.148438 106.898438 " clip-rule="nonzero"/></clipPath><clipPath id="b42324d62c"><path d="M 64.398438 153.105469 L 176.898438 153.105469 L 176.898438 265.605469 L 64.398438 265.605469 Z M 64.398438 153.105469 " clip-rule="nonzero"/></clipPath><clipPath id="ac38bf4e8b"><path d="M 120.648438 153.105469 L 176.898438 209.355469 L 120.648438 265.605469 L 64.398438 209.355469 L 120.648438 153.105469 " clip-rule="nonzero"/></clipPath></defs><g mask="url(#00f6b8374c)"><g transform="matrix(1, 0, 0, 1, 26, 110)"><g clip-path="url(#a2073fa6e6)"><g clip-path="url(#f8253d77f3)"><g clip-path="url(#d9ef91e78c)"><path fill="#545454" d="M 0.566406 0.628906 L 112.191406 0.628906 L 112.191406 112.253906 L 0.566406 112.253906 Z M 0.566406 0.628906 " fill-opacity="1" fill-rule="nonzero"/></g></g></g></g></g><g mask="url(#fb953151b6)"><g transform="matrix(1, 0, 0, 1, 60, 156)"><g clip-path="url(#c86cb2daf5)"><g clip-path="url(#a6916f4fda)"><g clip-path="url(#91e087fb00)"><path fill="#545454" d="M 0.796875 0.476562 L 112.421875 0.476562 L 112.421875 112.101562 L 0.796875 112.101562 Z M 0.796875 0.476562 " fill-opacity="1" fill-rule="nonzero"/></g></g></g></g></g><g clip-path="url(#2e92d359e1)"><g clip-path="url(#2e4197eb16)"><path fill="#38b6ff" d="M 29.898438 106.898438 L 142.398438 106.898438 L 142.398438 219.398438 L 29.898438 219.398438 Z M 29.898438 106.898438 " fill-opacity="1" fill-rule="nonzero"/></g></g><g clip-path="url(#b42324d62c)"><g clip-path="url(#ac38bf4e8b)"><path fill="#008dec" d="M 64.398438 153.105469 L 176.898438 153.105469 L 176.898438 265.605469 L 64.398438 265.605469 Z M 64.398438 153.105469 " fill-opacity="1" fill-rule="nonzero"/></g></g><g fill="#000000" fill-opacity="1"><g transform="translate(149.895582, 171.892328)"><g><path d="M 17.644531 0.445312 C 24.925781 0.445312 29.75 -3.527344 30.867188 -9.648438 L 27.605469 -9.648438 C 26.667969 -4.957031 22.871094 -2.324219 17.554688 -2.324219 C 9.378906 -2.324219 5.316406 -8.710938 5.316406 -17.0625 C 5.316406 -25.371094 9.378906 -31.761719 17.554688 -31.761719 C 22.871094 -31.761719 26.710938 -29.125 27.605469 -25.058594 L 30.867188 -25.058594 C 29.792969 -30.597656 24.925781 -34.53125 17.644531 -34.53125 C 7.101562 -34.53125 2.234375 -26.3125 2.234375 -17.0625 C 2.234375 -7.816406 7.101562 0.445312 17.644531 0.445312 Z M 17.644531 0.445312 "/></g></g></g><g fill="#000000" fill-opacity="1"><g transform="translate(180.665913, 171.892328)"><g><path d="M 13.625 -24.96875 C 10.183594 -24.96875 7.683594 -23.585938 6.074219 -20.859375 L 6.074219 -24.523438 L 3.171875 -24.523438 L 3.171875 0 L 6.074219 0 L 6.074219 -11.972656 C 6.074219 -15.632812 6.65625 -18.179688 8.085938 -19.96875 C 9.246094 -21.441406 10.988281 -22.113281 13.3125 -22.113281 L 14.429688 -22.113281 L 14.429688 -24.96875 Z M 13.625 -24.96875 "/></g></g></g><g fill="#000000" fill-opacity="1"><g transform="translate(194.108083, 171.892328)"><g><path d="M 13.890625 0.445312 C 20.816406 0.445312 25.730469 -5.046875 25.730469 -12.375 C 25.730469 -19.566406 20.726562 -24.96875 13.890625 -24.96875 C 7.058594 -24.96875 2.144531 -19.566406 2.144531 -12.375 C 2.144531 -4.957031 7.058594 0.445312 13.890625 0.445312 Z M 13.890625 -2.144531 C 8.84375 -2.144531 5.046875 -6.433594 5.046875 -12.375 C 5.046875 -18.089844 8.800781 -22.378906 13.890625 -22.378906 C 19.03125 -22.378906 22.828125 -18.046875 22.828125 -12.375 C 22.828125 -6.523438 18.984375 -2.144531 13.890625 -2.144531 Z M 13.890625 -2.144531 "/></g></g></g><g fill="#000000" fill-opacity="1"><g transform="translate(220.055104, 171.892328)"><g><path d="M 6.074219 0 L 6.074219 -9.695312 C 6.074219 -15.320312 7.058594 -18.449219 8.800781 -20.371094 C 10.007812 -21.664062 11.613281 -22.378906 13.492188 -22.378906 C 15.5 -22.378906 17.019531 -21.621094 17.957031 -20.101562 C 18.671875 -18.941406 19.03125 -17.289062 19.03125 -15.1875 L 19.03125 0 L 21.933594 0 L 21.933594 -15.054688 C 21.933594 -16.707031 21.933594 -19.117188 20.726562 -21.21875 C 19.429688 -23.496094 17.152344 -24.96875 14.117188 -24.96875 C 10.675781 -24.96875 8.085938 -23.585938 6.074219 -20.414062 L 6.074219 -24.523438 L 3.171875 -24.523438 L 3.171875 0 Z M 6.074219 0 "/></g></g></g><g fill="#000000" fill-opacity="1"><g transform="translate(243.009903, 171.892328)"><g><path d="M 13.890625 0.445312 C 20.816406 0.445312 25.730469 -5.046875 25.730469 -12.375 C 25.730469 -19.566406 20.726562 -24.96875 13.890625 -24.96875 C 7.058594 -24.96875 2.144531 -19.566406 2.144531 -12.375 C 2.144531 -4.957031 7.058594 0.445312 13.890625 0.445312 Z M 13.890625 -2.144531 C 8.84375 -2.144531 5.046875 -6.433594 5.046875 -12.375 C 5.046875 -18.089844 8.800781 -22.378906 13.890625 -22.378906 C 19.03125 -22.378906 22.828125 -18.046875 22.828125 -12.375 C 22.828125 -6.523438 18.984375 -2.144531 13.890625 -2.144531 Z M 13.890625 -2.144531 "/></g></g></g><g fill="#000000" fill-opacity="1"><g transform="translate(268.95693, 171.892328)"><g><path d="M 6.609375 0 L 6.609375 -14.832031 L 15.320312 -14.832031 C 21.976562 -14.832031 26.132812 -18.359375 26.132812 -24.480469 C 26.132812 -30.824219 21.886719 -34.082031 15.320312 -34.082031 L 3.527344 -34.082031 L 3.527344 0 Z M 6.609375 -31.3125 L 14.917969 -31.3125 C 20.101562 -31.3125 23.09375 -28.765625 23.09375 -24.390625 C 23.09375 -19.96875 20.191406 -17.511719 14.917969 -17.511719 L 6.609375 -17.511719 Z M 6.609375 -31.3125 "/></g></g></g><g fill="#000000" fill-opacity="1"><g transform="translate(294.68066, 171.892328)"><g><path d="M 13.625 -24.96875 C 10.183594 -24.96875 7.683594 -23.585938 6.074219 -20.859375 L 6.074219 -24.523438 L 3.171875 -24.523438 L 3.171875 0 L 6.074219 0 L 6.074219 -11.972656 C 6.074219 -15.632812 6.65625 -18.179688 8.085938 -19.96875 C 9.246094 -21.441406 10.988281 -22.113281 13.3125 -22.113281 L 14.429688 -22.113281 L 14.429688 -24.96875 Z M 13.625 -24.96875 "/></g></g></g><g fill="#000000" fill-opacity="1"><g transform="translate(308.122832, 171.892328)"><g><path d="M 13.890625 0.445312 C 20.816406 0.445312 25.730469 -5.046875 25.730469 -12.375 C 25.730469 -19.566406 20.726562 -24.96875 13.890625 -24.96875 C 7.058594 -24.96875 2.144531 -19.566406 2.144531 -12.375 C 2.144531 -4.957031 7.058594 0.445312 13.890625 0.445312 Z M 13.890625 -2.144531 C 8.84375 -2.144531 5.046875 -6.433594 5.046875 -12.375 C 5.046875 -18.089844 8.800781 -22.378906 13.890625 -22.378906 C 19.03125 -22.378906 22.828125 -18.046875 22.828125 -12.375 C 22.828125 -6.523438 18.984375 -2.144531 13.890625 -2.144531 Z M 13.890625 -2.144531 "/></g></g></g><g fill="#000000" fill-opacity="1"><g transform="translate(334.06986, 171.892328)"><g><path d="M 8.175781 0 L 8.175781 -21.933594 L 14.382812 -21.933594 L 14.382812 -24.523438 L 8.175781 -24.523438 L 8.175781 -27.605469 C 8.175781 -30.824219 9.78125 -31.492188 12.0625 -31.492188 L 14.382812 -31.492188 L 14.382812 -34.082031 L 11.433594 -34.082031 C 7.324219 -34.082031 5.269531 -31.761719 5.269531 -27.292969 L 5.269531 -24.523438 L 1.160156 -24.523438 L 1.160156 -21.933594 L 5.269531 -21.933594 L 5.269531 0 Z M 8.175781 0 "/></g></g></g></svg>