<svg xmlns="http://www.w3.org/2000/svg" xmlns:xlink="http://www.w3.org/1999/xlink" width="500" zoomAndPan="magnify" viewBox="0 0 375 374.999991" height="500" preserveAspectRatio="xMidYMid meet" version="1.0"><defs><filter x="0%" y="0%" width="100%" height="100%" id="ea87547e32"><feColorMatrix values="0 0 0 0 1 0 0 0 0 1 0 0 0 0 1 0 0 0 1 0" color-interpolation-filters="sRGB"/></filter><mask id="1b154dd73d"><g filter="url(#ea87547e32)"><rect x="-37.5" width="450" fill="#000000" y="-37.499999" height="449.999989" fill-opacity="0.2392"/></g></mask><clipPath id="b1c3c5e07c"><path d="M 1.109375 0.921875 L 222.671875 0.921875 L 222.671875 222.484375 L 1.109375 222.484375 Z M 1.109375 0.921875 " clip-rule="nonzero"/></clipPath><clipPath id="bb1959be6d"><path d="M 18.359375 0.921875 L 205.421875 0.921875 C 209.996094 0.921875 214.382812 2.738281 217.621094 5.972656 C 220.855469 9.210938 222.671875 13.597656 222.671875 18.171875 L 222.671875 205.234375 C 222.671875 209.808594 220.855469 214.195312 217.621094 217.429688 C 214.382812 220.664062 209.996094 222.484375 205.421875 222.484375 L 18.359375 222.484375 C 13.785156 222.484375 9.398438 220.664062 6.164062 217.429688 C 2.929688 214.195312 1.109375 209.808594 1.109375 205.234375 L 1.109375 18.171875 C 1.109375 13.597656 2.929688 9.210938 6.164062 5.972656 C 9.398438 2.738281 13.785156 0.921875 18.359375 0.921875 " clip-rule="nonzero"/></clipPath><clipPath id="f61c157043"><rect x="0" width="223" y="0" height="223"/></clipPath><mask id="8bbc5ad130"><g filter="url(#ea87547e32)"><rect x="-37.5" width="450" fill="#000000" y="-37.499999" height="449.999989" fill-opacity="0.2392"/></g></mask><clipPath id="3d74a29af1"><path d="M 0.0546875 0.921875 L 221.617188 0.921875 L 221.617188 222.484375 L 0.0546875 222.484375 Z M 0.0546875 0.921875 " clip-rule="nonzero"/></clipPath><clipPath id="c08a38a726"><path d="M 110.835938 0.921875 L 221.617188 111.703125 L 110.835938 222.484375 L 0.0546875 111.703125 L 110.835938 0.921875 " clip-rule="nonzero"/></clipPath><clipPath id="fdda001bcb"><rect x="0" width="222" y="0" height="223"/></clipPath><clipPath id="5f3b22f440"><path d="M 45.722656 27.515625 L 269.023438 27.515625 L 269.023438 250.8125 L 45.722656 250.8125 Z M 45.722656 27.515625 " clip-rule="nonzero"/></clipPath><clipPath id="00ba96bd63"><path d="M 62.972656 27.515625 L 251.773438 27.515625 C 261.296875 27.515625 269.023438 35.238281 269.023438 44.765625 L 269.023438 233.5625 C 269.023438 243.089844 261.296875 250.8125 251.773438 250.8125 L 62.972656 250.8125 C 53.445312 250.8125 45.722656 243.089844 45.722656 233.5625 L 45.722656 44.765625 C 45.722656 35.238281 53.445312 27.515625 62.972656 27.515625 " clip-rule="nonzero"/></clipPath><clipPath id="0e734b69de"><path d="M 114.203125 119.230469 L 337.5 119.230469 L 337.5 342.53125 L 114.203125 342.53125 Z M 114.203125 119.230469 " clip-rule="nonzero"/></clipPath><clipPath id="11568412eb"><path d="M 225.851562 119.230469 L 337.5 230.878906 L 225.851562 342.53125 L 114.203125 230.878906 L 225.851562 119.230469 " clip-rule="nonzero"/></clipPath></defs><g mask="url(#1b154dd73d)"><g transform="matrix(1, 0, 0, 1, 38, 34)"><g clip-path="url(#f61c157043)"><g clip-path="url(#b1c3c5e07c)"><g clip-path="url(#bb1959be6d)"><path fill="#545454" d="M 1.109375 0.921875 L 222.671875 0.921875 L 222.671875 222.484375 L 1.109375 222.484375 Z M 1.109375 0.921875 " fill-opacity="1" fill-rule="nonzero"/></g></g></g></g></g><g mask="url(#8bbc5ad130)"><g transform="matrix(1, 0, 0, 1, 107, 125)"><g clip-path="url(#fdda001bcb)"><g clip-path="url(#3d74a29af1)"><g clip-path="url(#c08a38a726)"><path fill="#545454" d="M 0.0546875 0.921875 L 221.617188 0.921875 L 221.617188 222.484375 L 0.0546875 222.484375 Z M 0.0546875 0.921875 " fill-opacity="1" fill-rule="nonzero"/></g></g></g></g></g><g clip-path="url(#5f3b22f440)"><g clip-path="url(#00ba96bd63)"><path fill="#38b6ff" d="M 45.722656 27.515625 L 269.023438 27.515625 L 269.023438 250.8125 L 45.722656 250.8125 Z M 45.722656 27.515625 " fill-opacity="1" fill-rule="nonzero"/></g></g><g clip-path="url(#0e734b69de)"><g clip-path="url(#11568412eb)"><path fill="#008dec" d="M 114.203125 119.230469 L 337.5 119.230469 L 337.5 342.53125 L 114.203125 342.53125 Z M 114.203125 119.230469 " fill-opacity="1" fill-rule="nonzero"/></g></g></svg>